<?xml version="1.0" encoding="utf-8"?>
<!-- Generator: Adobe Illustrator 23.0.1, SVG Export Plug-In . SVG Version: 6.00 Build 0)  -->
<svg version="1.1" id="Layer_1" xmlns="http://www.w3.org/2000/svg" xmlns:xlink="http://www.w3.org/1999/xlink" x="0px" y="0px"
	 viewBox="0 0 50 50" style="enable-background:new 0 0 50 50;" xml:space="preserve">
<style type="text/css">
	.st0{fill:#E84F2E;stroke:#1D1D1B;stroke-miterlimit:10;}
	.st1{fill:#FFFFFF;stroke:#1D1D1B;stroke-miterlimit:10;}
	.st2{fill:none;stroke:#1D1D1B;stroke-miterlimit:10;}
	.st3{stroke:#1D1D1B;stroke-miterlimit:10;}
</style>
<g>
	
		<rect x="0.03" y="0.04" transform="matrix(1 -1.450083e-03 1.450083e-03 1 -0.0362 0.0363)" class="st0" width="49.94" height="49.93"/>
	
		<ellipse transform="matrix(1 -2.304783e-03 2.304783e-03 1 -0.0299 0.0251)" class="st1" cx="10.86" cy="12.97" rx="5.76" ry="4.89"/>
	
		<ellipse transform="matrix(1 -2.304783e-03 2.304783e-03 1 -0.0297 0.0902)" class="st1" cx="39.11" cy="12.93" rx="5.76" ry="4.89"/>
	<line class="st2" x1="24.75" y1="17.84" x2="24.76" y2="31.33"/>
	<line class="st2" x1="24.76" y1="31.33" x2="39.13" y2="31.31"/>
	<line class="st2" x1="10.9" y1="43.39" x2="39.14" y2="43.35"/>
	<line class="st2" x1="10.89" y1="34.95" x2="10.9" y2="43.39"/>
	<line class="st2" x1="39.13" y1="34.91" x2="39.14" y2="43.36"/>
	<g>
		
			<ellipse transform="matrix(1 -2.304783e-03 2.304783e-03 1 -0.0299 0.0251)" class="st3" cx="10.86" cy="12.97" rx="1.83" ry="1.56"/>
		
			<ellipse transform="matrix(1 -2.304783e-03 2.304783e-03 1 -0.0297 0.0902)" class="st3" cx="39.11" cy="12.93" rx="1.83" ry="1.56"/>
	</g>
</g>
</svg>
